<?xml version="1.0" standalone="no"?>
<!DOCTYPE svg PUBLIC "-//W3C//DTD SVG 20010904//EN"
 "http://www.w3.org/TR/2001/REC-SVG-20010904/DTD/svg10.dtd">
<svg version="1.0" xmlns="http://www.w3.org/2000/svg"
 width="500.000000pt" height="500.000000pt" viewBox="0 0 500.000000 500.000000"
 preserveAspectRatio="xMidYMid meet">

<g transform="translate(0.000000,500.000000) scale(0.100000,-0.100000)"
fill="#000000" stroke="none">
<path d="M992 3110 c2 -73 -1 -90 -17 -90 -9 0 -18 8 -22 18 -17 49 -46 106
-49 97 -3 -6 5 -37 16 -69 21 -62 19 -76 -8 -77 -9 0 -60 -26 -112 -57 -92
-56 -95 -59 -98 -97 -2 -22 -8 -44 -13 -49 -12 -13 -12 -53 0 -58 9 -3 12
-130 8 -283 0 -27 3 -104 8 -170 10 -131 22 -122 24 19 1 67 3 77 17 72 8 -3
24 -1 35 4 17 10 19 22 19 115 0 81 3 105 13 105 45 0 64 92 21 98 -17 2 -23
12 -27 44 -5 35 -1 47 19 71 13 16 24 32 24 37 0 5 12 8 27 7 21 -2 30 5 41
26 16 33 52 37 52 6 0 -26 38 -225 49 -261 6 -17 6 -30 -1 -34 -5 -3 -13 -17
-18 -30 -11 -29 -30 -32 -30 -5 0 57 -64 63 -112 10 -36 -38 -38 -103 -3 -70
13 11 71 22 78 14 4 -3 -5 -14 -18 -25 -14 -11 -25 -26 -25 -33 0 -8 35 21 78
63 80 80 138 176 115 190 -10 6 -21 86 -36 242 -1 17 3 25 13 25 12 0 15 -18
17 -90 2 -49 7 -103 11 -119 l8 -30 14 34 c11 27 11 48 2 114 -17 118 -17 119
27 144 21 12 44 22 50 22 7 0 11 -34 11 -103 l0 -103 39 -22 38 -22 2 159 c2
155 2 159 -21 175 -40 29 -53 25 -211 -61 -24 -14 -25 -13 -46 57 l-10 35 1
-45z m17 -245 c0 -26 -2 -27 -9 -10 -5 11 -9 31 -9 45 -1 20 1 22 9 10 5 -8 9
-28 9 -45z m-249 -456 c0 -10 -7 -19 -15 -19 -9 0 -15 9 -15 25 0 18 4 23 15
19 8 -4 15 -15 15 -25z"/>
<path d="M613 2727 c-7 -34 -15 -72 -18 -83 -6 -18 1 -26 36 -47 24 -15 45
-24 47 -23 2 2 -6 34 -17 71 -12 37 -21 79 -21 94 0 56 -16 49 -27 -12z"/>
<path d="M1260 2716 c0 -8 5 -18 10 -21 6 -3 10 3 10 14 0 12 -4 21 -10 21 -5
0 -10 -6 -10 -14z"/>
<path d="M570 2507 c0 -24 3 -79 7 -121 5 -62 10 -79 26 -87 19 -11 19 -7 16
110 -3 95 -7 124 -19 131 -26 16 -30 11 -30 -33z"/>
<path d="M1036 2477 c-27 -20 -17 -53 14 -49 32 5 32 5 24 36 -7 30 -13 31
-38 13z"/>
<path d="M816 2375 c-4 -11 0 -22 11 -31 15 -11 19 -10 21 3 2 8 -3 22 -11 30
-12 13 -15 12 -21 -2z"/>
<path d="M920 2330 c0 -13 7 -20 18 -20 26 0 34 11 21 27 -17 20 -39 16 -39
-7z"/>
<path d="M806 2332 c-2 -4 -2 -54 1 -111 5 -86 9 -106 26 -122 29 -27 40 -14
31 40 -4 25 -6 73 -6 106 2 53 -1 62 -22 78 -14 9 -27 14 -30 9z"/>
<path d="M920 2275 c0 -9 9 -15 25 -15 16 0 25 6 25 15 0 9 -9 15 -25 15 -16
0 -25 -6 -25 -15z"/>
<path d="M1076 2244 c-11 -28 -6 -54 9 -54 10 0 15 10 15 29 0 34 -15 49 -24
25z"/>
<path d="M930 2184 c0 -28 3 -35 18 -32 11 2 18 14 20 36 3 27 0 32 -17 32
-17 0 -21 -6 -21 -36z"/>
<path d="M1040 2151 c0 -10 42 -23 49 -15 7 6 -20 24 -36 24 -7 0 -13 -4 -13
-9z"/>
<path d="M1042 2058 c3 -60 4 -63 31 -66 27 -3 27 -2 27 52 0 44 -4 57 -19 66
-37 19 -42 13 -39 -52z"/>
<path d="M930 2089 c0 -15 5 -20 22 -17 34 5 37 38 4 38 -20 0 -26 -5 -26 -21z"/>
</g>
</svg>
